<svg   id="chart"   width="1000"   height="500"   viewBox="0 0 1000 500"   xmlns="http://www.w3.org/2000/svg" >      <path d="M 0,497.32713991738365 C 10.600000000000001,493.2434772512406 31.799999999999997,483.75328546590396 53,476.9088265866684 C 74.2,470.06436770743284 84.8,467.1860644518647 106,463.1048455212058 C 127.2,459.0236265905469 137.8,462.46190372173555 159,456.50273193337387 C 180.2,450.5435601450122 190.8,442.9408625628329 212,433.3089865793973 C 233.2,423.6771105959617 243.8,425.70790625315124 265,408.343352016196 C 286.2,390.9787977792407 296.8,348.5124828393214 318,346.48621539462096 C 339.2,344.4599479499205 349.8,408.3844202926673 371,398.21201479269376 C 392.2,388.03960929272023 402.8,309.8480248942832 424,295.6241878947534 C 445.2,281.4003508952236 455.8,323.1433720253199 477,327.0928297950449 C 498.2,331.04228756476994 508.8,329.36883699327905 530,315.3714767433785 C 551.2,301.3741164934779 561.8,272.2154459670515 583,257.10602854554213 C 604.2,241.9966111240328 614.8,240.38774675666474 636,239.82438963583178 C 657.2,239.26103251499882 667.8,256.4569897249538 689,254.28924294137727 C 710.2,252.12149615780072 720.8,241.8227543018192 742,228.9856557179491 C 763.2,216.148557134079 773.8,205.5430277065713 795,190.10375002202682 C 816.2,174.66447233748232 826.8,154.62142778885337 848,151.78926729522658 C 869.2,148.95710680159982 879.8,158.50784431106072 901,175.94294755389296 C 922.2,193.3780507967252 932.8,229.93594808407107 954,238.96478350938776 C 975.2,247.99361893470444 996.4,224.66265644625867 1007,221.0871246804764,L 1000 500,L 0 500Z" fill="#444cf71a" />   <path d="M 0,497.32713991738365 C 10.600000000000001,493.2434772512406 31.799999999999997,483.75328546590396 53,476.9088265866684 C 74.2,470.06436770743284 84.8,467.1860644518647 106,463.1048455212058 C 127.2,459.0236265905469 137.8,462.46190372173555 159,456.50273193337387 C 180.2,450.5435601450122 190.8,442.9408625628329 212,433.3089865793973 C 233.2,423.6771105959617 243.8,425.70790625315124 265,408.343352016196 C 286.2,390.9787977792407 296.8,348.5124828393214 318,346.48621539462096 C 339.2,344.4599479499205 349.8,408.3844202926673 371,398.21201479269376 C 392.2,388.03960929272023 402.8,309.8480248942832 424,295.6241878947534 C 445.2,281.4003508952236 455.8,323.1433720253199 477,327.0928297950449 C 498.2,331.04228756476994 508.8,329.36883699327905 530,315.3714767433785 C 551.2,301.3741164934779 561.8,272.2154459670515 583,257.10602854554213 C 604.2,241.9966111240328 614.8,240.38774675666474 636,239.82438963583178 C 657.2,239.26103251499882 667.8,256.4569897249538 689,254.28924294137727 C 710.2,252.12149615780072 720.8,241.8227543018192 742,228.9856557179491 C 763.2,216.148557134079 773.8,205.5430277065713 795,190.10375002202682 C 816.2,174.66447233748232 826.8,154.62142778885337 848,151.78926729522658 C 869.2,148.95710680159982 879.8,158.50784431106072 901,175.94294755389296 C 922.2,193.3780507967252 932.8,229.93594808407107 954,238.96478350938776 C 975.2,247.99361893470444 996.4,224.66265644625867 1007,221.0871246804764" fill="none" stroke="#444cf7" stroke-width="4px" />   <g>   		<circle cx="0" cy="497.32713991738365" r="8" fill="#444cf7" />,		<circle cx="53" cy="476.9088265866684" r="8" fill="#444cf7" />,		<circle cx="106" cy="463.1048455212058" r="8" fill="#444cf7" />,		<circle cx="159" cy="456.50273193337387" r="8" fill="#444cf7" />,		<circle cx="212" cy="433.3089865793973" r="8" fill="#444cf7" />,		<circle cx="265" cy="408.343352016196" r="8" fill="#444cf7" />,		<circle cx="318" cy="346.48621539462096" r="8" fill="#444cf7" />,		<circle cx="371" cy="398.21201479269376" r="8" fill="#444cf7" />,		<circle cx="424" cy="295.6241878947534" r="8" fill="#444cf7" />,		<circle cx="477" cy="327.0928297950449" r="8" fill="#444cf7" />,		<circle cx="530" cy="315.3714767433785" r="8" fill="#444cf7" />,		<circle cx="583" cy="257.10602854554213" r="8" fill="#444cf7" />,		<circle cx="636" cy="239.82438963583178" r="8" fill="#444cf7" />,		<circle cx="689" cy="254.28924294137727" r="8" fill="#444cf7" />,		<circle cx="742" cy="228.9856557179491" r="8" fill="#444cf7" />,		<circle cx="795" cy="190.10375002202682" r="8" fill="#444cf7" />,		<circle cx="848" cy="151.78926729522658" r="8" fill="#444cf7" />,		<circle cx="901" cy="175.94294755389296" r="8" fill="#444cf7" />,		<circle cx="954" cy="238.96478350938776" r="8" fill="#444cf7" />,		<circle cx="1007" cy="221.0871246804764" r="8" fill="#444cf7" />   </g> </svg>