<svg height="400" version="1.1" width="640" xmlns="http://www.w3.org/2000/svg" xmlns:xlink="http://www.w3.org/1999/xlink" style="overflow: hidden; position: relative;"><desc style="-webkit-tap-highlight-color: rgba(0, 0, 0, 0);">Created with Raphaël 2.3.0</desc><defs style="-webkit-tap-highlight-color: rgba(0, 0, 0, 0);"></defs><path style="-webkit-tap-highlight-color: rgba(0, 0, 0, 0); stroke-linejoin: round;" fill="#3069bf" stroke="#ffffff" d="M320,180L174.35872738609217,215.89734964313362A150,150,0,1,1,465.6412726139078,215.89734964313365Z" stroke-width="1" stroke-linejoin="round"></path><path style="-webkit-tap-highlight-color: rgba(0, 0, 0, 0); stroke-linejoin: round;" fill="#a3bf30" stroke="#ffffff" d="M320,180L465.6412726139078,215.89734964313365A150,150,0,0,1,187.18159615201853,249.7084758065653Z" stroke-width="1" stroke-linejoin="round"></path><path style="-webkit-tap-highlight-color: rgba(0, 0, 0, 0); stroke-linejoin: round;" fill="#bf5b30" stroke="#ffffff" d="M320,180L187.18159615201853,249.7084758065653A150,150,0,0,1,174.35872738609223,215.8973496431337Z" stroke-width="1" stroke-linejoin="round"></path><path style="-webkit-tap-highlight-color: rgba(0, 0, 0, 0); fill-opacity: 0;" fill="#000000" stroke="none" d="M320,180L174.35872738609217,215.89734964313362A150,150,0,1,1,465.6412726139078,215.89734964313365Z" fill-opacity="0"></path><path style="-webkit-tap-highlight-color: rgba(0, 0, 0, 0); fill-opacity: 0;" fill="#000000" stroke="none" d="M320,180L465.6412726139078,215.89734964313365A150,150,0,0,1,187.18159615201853,249.7084758065653Z" fill-opacity="0"></path><path style="-webkit-tap-highlight-color: rgba(0, 0, 0, 0); fill-opacity: 0;" fill="#000000" stroke="none" d="M320,180L187.18159615201853,249.7084758065653A150,150,0,0,1,174.35872738609223,215.8973496431337Z" fill-opacity="0"></path><circle cx="505" cy="190" r="5" fill="#3069bf" stroke="none" style="-webkit-tap-highlight-color: rgba(0, 0, 0, 0);" transform="matrix(1,0,0,1,0,-23.8)"></circle><text style="-webkit-tap-highlight-color: rgba(0, 0, 0, 0); text-anchor: start; font: 12px Arial, sans-serif;" x="520" y="190" text-anchor="start" font-family="&quot;Arial&quot;" font-size="10px" stroke="none" fill="#000000" font="12px Arial, sans-serif" transform="matrix(1,0,0,1,0,-23.8)"><tspan dy="4" style="-webkit-tap-highlight-color: rgba(0, 0, 0, 0);">30</tspan></text><circle cx="505" cy="206.8" r="5" fill="#a3bf30" stroke="none" style="-webkit-tap-highlight-color: rgba(0, 0, 0, 0);" transform="matrix(1,0,0,1,0,-23.8)"></circle><text style="-webkit-tap-highlight-color: rgba(0, 0, 0, 0); text-anchor: start; font: 12px Arial, sans-serif;" x="520" y="206.8" text-anchor="start" font-family="&quot;Arial&quot;" font-size="10px" stroke="none" fill="#000000" font="12px Arial, sans-serif" transform="matrix(1,0,0,1,0,-23.8)"><tspan dy="3.999996948242199" style="-webkit-tap-highlight-color: rgba(0, 0, 0, 0);">20</tspan></text><circle cx="505" cy="223.60000000000002" r="5" fill="#bf5b30" stroke="none" style="-webkit-tap-highlight-color: rgba(0, 0, 0, 0);" transform="matrix(1,0,0,1,0,-23.8)"></circle><text style="-webkit-tap-highlight-color: rgba(0, 0, 0, 0); text-anchor: start; font: 12px Arial, sans-serif;" x="520" y="223.60000000000002" text-anchor="start" font-family="&quot;Arial&quot;" font-size="10px" stroke="none" fill="#000000" font="12px Arial, sans-serif" transform="matrix(1,0,0,1,0,-23.8)"><tspan dy="3.9999938964843977" style="-webkit-tap-highlight-color: rgba(0, 0, 0, 0);">2</tspan></text></svg>